<?xml version="1.0"?>
<svg xmlns="http://www.w3.org/2000/svg" xmlns:xlink="http://www.w3.org/1999/xlink" xmlns:svgjs="http://svgjs.com/svgjs" version="1.1" width="512" height="512" x="0" y="0" viewBox="0 0 512 512" style="enable-background:new 0 0 512 512" xml:space="preserve" class=""><g>
<g xmlns="http://www.w3.org/2000/svg">
	<g>
		<path d="M346,195.999c-8.276,0-15,6.724-15,15v90c0,8.276,6.724,15,15,15h15v-120H346z" fill="#49321c" data-original="#000000" style="" class=""/>
	</g>
</g>
<g xmlns="http://www.w3.org/2000/svg">
	<g>
		<path d="M467,15.999H45c-24.814,0-45,20.186-45,45v300c0,24.814,20.186,45,45,45h46v75c0,13.376,16.224,19.987,25.605,10.605    l85.605-85.605H467c24.814,0,45-20.186,45-45v-300C512,36.185,491.814,15.999,467,15.999z M391,330.999c0,8.291-6.709,15-15,15    h-30c-12.524,0-23.846-5.162-32.012-13.445l-17.953,6.151c-14.136,4.834-28.872,7.295-43.784,7.295h-69.155    c-21.387,0-39.946-15.22-44.121-36.182l-18.003-89.985C115.384,192.018,136.722,166,165.093,166H196v-30c0-33.091,26.909-60,60-60    c16.538,0,30,13.462,30,30v27.319c0,15.352,7.69,29.487,20.581,37.808l9.758,6.299C324.278,170.404,334.591,166,346,166h30    c8.291,0,15,6.709,15,15V330.999z" fill="#49321c" data-original="#000000" style="" class=""/>
	</g>
</g>
<g xmlns="http://www.w3.org/2000/svg">
	<g>
		<path d="M301.001,210.999c-0.001-2.497,0.343-4.905,0.737-7.293l-11.431-7.385C268.832,182.449,256,158.895,256,133.318v-27.319    c-16.538,0-30,13.462-30,30v45c0,8.291-6.709,15-15,15h-45.908c-9.475,0-16.553,8.651-14.707,17.944l18.003,90    c1.392,6.987,7.573,12.056,14.707,12.056h69.155c11.602,0,23.057-1.904,34.058-5.684l15.112-5.176    c-0.128-1.384-0.419-2.723-0.419-4.14V210.999z" fill="#49321c" data-original="#000000" style="" class=""/>
	</g>
</g>
<g xmlns="http://www.w3.org/2000/svg">
</g>
<g xmlns="http://www.w3.org/2000/svg">
</g>
<g xmlns="http://www.w3.org/2000/svg">
</g>
<g xmlns="http://www.w3.org/2000/svg">
</g>
<g xmlns="http://www.w3.org/2000/svg">
</g>
<g xmlns="http://www.w3.org/2000/svg">
</g>
<g xmlns="http://www.w3.org/2000/svg">
</g>
<g xmlns="http://www.w3.org/2000/svg">
</g>
<g xmlns="http://www.w3.org/2000/svg">
</g>
<g xmlns="http://www.w3.org/2000/svg">
</g>
<g xmlns="http://www.w3.org/2000/svg">
</g>
<g xmlns="http://www.w3.org/2000/svg">
</g>
<g xmlns="http://www.w3.org/2000/svg">
</g>
<g xmlns="http://www.w3.org/2000/svg">
</g>
<g xmlns="http://www.w3.org/2000/svg">
</g>
</g></svg>
