<?xml version="1.0"?>
<svg xmlns="http://www.w3.org/2000/svg" xmlns:xlink="http://www.w3.org/1999/xlink" xmlns:svgjs="http://svgjs.com/svgjs" version="1.1" width="512" height="512" x="0" y="0" viewBox="0 0 512 512" style="enable-background:new 0 0 512 512" xml:space="preserve" class=""><g><path xmlns="http://www.w3.org/2000/svg" d="m484.86 0h-213.86v48.71c0 8.28-6.72 15-15 15s-15-6.72-15-15v-48.71h-213.86c-8.28 0-15 6.72-15 15v482c0 8.28 6.72 15 15 15h213.86v-48.71c0-8.28 6.72-15 15-15s15 6.72 15 15v48.71h213.86c8.28 0 15-6.72 15-15v-482c0-8.28-6.72-15-15-15zm-323.41 385.43c8.28 0 15 6.72 15 15s-6.72 15-15 15h-69.76c-8.28 0-15-6.72-15-15s6.72-15 15-15h19.88v-82.51c-30.969-6.455-52.201-35.7-49.05-67.49l12.37-125.33c.76-7.68 7.21-13.53 14.93-13.53h73.5c7.72 0 14.17 5.85 14.93 13.53l12.37 125.33c3.26 32.895-19.177 61.264-49.05 67.49v82.51zm109.55 17.86c0 8.29-6.72 15-15 15s-15-6.71-15-15v-28.57c0-8.28 6.72-15 15-15s15 6.72 15 15zm0-88.87c0 8.28-6.72 15-15 15s-15-6.72-15-15v-28.57c0-8.29 6.72-15 15-15s15 6.71 15 15zm0-88.57c0 8.28-6.72 15-15 15s-15-6.72-15-15v-28.57c0-8.29 6.72-15 15-15s15 6.71 15 15zm0-88.57c0 8.28-6.72 15-15 15s-15-6.72-15-15v-28.57c0-8.29 6.72-15 15-15s15 6.71 15 15zm168.86 278.15h-108.86c-8.28 0-15-6.72-15-15s6.72-15 15-15h108.86c8.28 0 15 6.72 15 15s-6.72 15-15 15zm0-60h-108.86c-8.28 0-15-6.72-15-15s6.72-15 15-15h108.86c8.28 0 15 6.72 15 15s-6.72 15-15 15zm0-60h-108.86c-8.28 0-15-6.72-15-15s6.72-15 15-15h108.86c8.28 0 15 6.72 15 15s-6.72 15-15 15zm15-75c0 8.28-6.72 15-15 15h-108.86c-8.28 0-15-6.72-15-15v-108.86c0-8.28 6.72-15 15-15h108.86c8.28 0 15 6.72 15 15z" fill="#49321c" data-original="#000000" style="" class=""/><path xmlns="http://www.w3.org/2000/svg" d="m346 126.57h78.86v78.86h-78.86z" fill="#49321c" data-original="#000000" style="" class=""/><path xmlns="http://www.w3.org/2000/svg" d="m160.77 238.38-11.04-111.81h-46.32l-11.04 111.81c-1.739 17.526 10.642 35.94 34.2 35.94 23.493 0 35.944-18.362 34.2-35.94z" fill="#49321c" data-original="#000000" style="" class=""/></g></svg>
