<svg id="Capa_1" enable-background="new 0 0 512.001 512.001" fill="#49321c" height="512" viewBox="0 0 512.001 512.001" width="512" xmlns="http://www.w3.org/2000/svg"><g><g><path d="m370.58 265.82c-4.13 0-7.886-2.636-9.351-6.482-1.504-3.95-.258-8.572 3.007-11.25 3.231-2.649 7.897-2.993 11.481-.847 3.587 2.147 5.476 6.432 4.663 10.529-.916 4.615-5.09 8.05-9.8 8.05z"/><path d="m340.851 492h-301.121c-21.907 0-39.73-17.823-39.73-39.73v-392.539c0-21.907 17.823-39.731 39.73-39.731h301.12c21.907 0 39.73 17.823 39.73 39.73v151.063c0 5.523-4.477 10-10 10s-10-4.477-10-10v-151.062c0-10.879-8.851-19.73-19.73-19.73h-301.12c-10.879-.001-19.73 8.851-19.73 19.73v392.539c0 10.879 8.851 19.73 19.73 19.73h301.12c10.879 0 19.73-8.852 19.73-19.73v-151.064c0-5.522 4.477-10 10-10s10 4.478 10 10v151.064c.001 21.907-17.822 39.73-39.729 39.73z"/><g><g><path d="m319.727 310.937h-122.582c-5.523 0-10-4.478-10-10s4.477-10 10-10h122.582c5.523 0 10 4.478 10 10s-4.477 10-10 10z"/></g><g><path d="m276.833 271.059h-79.688c-5.523 0-10-4.478-10-10 0-5.523 4.477-10 10-10h79.688c5.523 0 10 4.477 10 10 0 5.522-4.477 10-10 10z"/></g></g><g><g><path d="m319.727 429.424h-122.582c-5.523 0-10-4.478-10-10s4.477-10 10-10h122.582c5.523 0 10 4.478 10 10 0 5.523-4.477 10-10 10z"/></g><g><path d="m276.833 389.547h-79.688c-5.523 0-10-4.478-10-10s4.477-10 10-10h79.688c5.523 0 10 4.478 10 10 0 5.523-4.477 10-10 10z"/></g></g><g><g><path d="m319.727 172.51h-122.582c-5.523 0-10-4.478-10-10 0-5.523 4.477-10 10-10h122.582c5.523 0 10 4.477 10 10s-4.477 10-10 10z"/></g><g><path d="m276.833 132.633h-79.688c-5.523 0-10-4.477-10-10 0-5.522 4.477-10 10-10h79.688c5.523 0 10 4.478 10 10 0 5.523-4.477 10-10 10z"/></g></g><g><path d="m104.139 409.486c-1.685 0-3.382-.425-4.924-1.299l-9.367-5.305c-4.806-2.721-6.495-8.823-3.774-13.629 2.722-4.806 8.824-6.496 13.629-3.773l2.748 1.556 8.125-8.126c3.905-3.904 10.237-3.904 14.142 0 3.905 3.905 3.906 10.237 0 14.143l-13.504 13.505c-1.926 1.924-4.486 2.928-7.075 2.928z"/></g><g><path d="m104.139 271.059c-1.685 0-3.382-.425-4.924-1.299l-9.367-5.305c-4.806-2.721-6.495-8.823-3.774-13.629 2.722-4.806 8.824-6.496 13.629-3.773l2.748 1.556 8.125-8.125c3.905-3.904 10.236-3.903 14.142 0 3.905 3.905 3.905 10.237 0 14.143l-13.504 13.504c-1.926 1.924-4.486 2.928-7.075 2.928z"/></g><g><path d="m104.139 132.633c-1.685 0-3.382-.425-4.924-1.299l-9.367-5.305c-4.806-2.721-6.495-8.823-3.774-13.629 2.722-4.805 8.824-6.497 13.629-3.773l2.748 1.556 8.125-8.126c3.905-3.904 10.237-3.904 14.142 0 3.905 3.905 3.906 10.237 0 14.143l-13.504 13.505c-1.926 1.924-4.486 2.928-7.075 2.928z"/></g><path d="m105.79 449.363c-30.292 0-54.936-24.644-54.936-54.936s24.644-54.936 54.936-54.936 54.936 24.644 54.936 54.936c.001 30.291-24.643 54.936-54.936 54.936zm0-89.872c-19.264 0-34.936 15.672-34.936 34.936s15.672 34.936 34.936 34.936 34.936-15.673 34.936-34.936-15.672-34.936-34.936-34.936z"/><path d="m105.79 310.937c-30.292 0-54.936-24.645-54.936-54.936s24.644-54.937 54.936-54.937 54.936 24.645 54.936 54.937-24.643 54.936-54.936 54.936zm0-89.873c-19.264 0-34.936 15.673-34.936 34.937s15.672 34.936 34.936 34.936 34.936-15.673 34.936-34.936-15.672-34.937-34.936-34.937z"/><path d="m105.79 172.51c-30.292 0-54.936-24.644-54.936-54.936s24.644-54.937 54.936-54.937 54.936 24.645 54.936 54.937-24.643 54.936-54.936 54.936zm0-89.872c-19.264 0-34.936 15.673-34.936 34.937s15.672 34.936 34.936 34.936 34.936-15.672 34.936-34.936-15.672-34.937-34.936-34.937z"/><path d="m511.108 413.682c.618-1.36.909-2.806.892-4.236v-365.456c0-13.228-10.762-23.99-23.989-23.99h-57.809c-13.227 0-23.989 10.762-23.989 23.989v365.457c-.016 1.43.274 2.876.892 4.236.004.009 43.396 73.413 43.396 73.413 1.8 3.04 5.071 4.905 8.605 4.905s6.805-1.865 8.605-4.905c0 0 43.393-73.403 43.397-73.413zm-62.002-39.338-22.894 16.012v-248.292h22.894zm20-232.28h22.894v248.292l-22.894-16.012zm22.894-20h-65.787v-19.064h65.787zm-62.46 290.371 29.566-20.679 29.566 20.679-4.29 7.246h-50.552zm-3.327-368.445c0-2.199 1.79-3.989 3.989-3.989h57.809c2.2 0 3.989 1.79 3.989 3.989v39.01h-65.787zm32.893 418.382-13.435-22.691h26.869z"/></g></g></svg>