<svg height="512" viewBox="0 0 52 58" width="512" xmlns="http://www.w3.org/2000/svg"><g id="Page-1" fill="none" fill-rule="evenodd"><g id="057---Splitting-Bill" fill-rule="nonzero"><path id="Shape" d="m0 1c0-.55228475.44771525-1 1-1h42c.5522847 0 1 .44771525 1 1v25.382c-.000185.3464401-.1796678.6681037-.4743943.8501945-.2947265.1820909-.6627032.1986643-.9726057.0438055l-2.106-1.052c-.2814108-.1406214-.6125892-.1406214-.894 0l-3.106 1.552c-.2814108.1406214-.6125892.1406214-.894 0l-3.106-1.552c-.2814108-.1406214-.6125892-.1406214-.894 0l-3.106 1.552c-.2814108.1406214-.6125892.1406214-.894 0l-3.106-1.552c-.2814108-.1406214-.6125892-.1406214-.894 0l-3.106 1.552c-.2814108.1406214-.6125892.1406214-.894 0l-3.106-1.552c-.2814108-.1406214-.6125892-.1406214-.894 0l-3.106 1.552c-.2814108.1406214-.6125892.1406214-.894 0l-3.106-1.552c-.28141076-.1406214-.61258924-.1406214-.894 0l-3.106 1.552c-.28141076.1406214-.61258924.1406214-.894 0l-3-1.5c-.33872941-.1692635-.55279778-.5153343-.553-.894z" fill="#f3d55b"/><path id="Shape" d="m51 40h-7v-6.38c.0026457-.3801569-.2104962-.7289345-.55-.9l-3-1.5c-.2836743-.1399671-.6163257-.1399671-.9 0l-3.1 1.56c-.2836743.1399671-.6163257.1399671-.9 0l-3.1-1.56c-.2836743-.1399671-.6163257-.1399671-.9 0l-3.1 1.56c-.2836743.1399671-.6163257.1399671-.9 0l-3.1-1.56c-.2836743-.1399671-.6163257-.1399671-.9 0l-3.1 1.56c-.2836743.1399671-.6163257.1399671-.9 0l-3.1-1.56c-.2836743-.1399671-.6163257-.1399671-.9 0l-3.1 1.56c-.2836743.1399671-.6163257.1399671-.9 0l-3.1-1.56c-.28367434-.1399671-.61632566-.1399671-.9 0l-3.1 1.56c-.28367434.1399671-.61632566.1399671-.9 0l-2.1-1.06c-.31110936-.1567797-.68138927-.1403468-.97738725.0433761s-.47504575.508252-.47261275.8566239v21.38c0 2.209139 1.790861 4 4 4h43.99c.13 0 .27-.01.4-.02 2.0866854-.2582196 3.6432846-2.0476619 3.61-4.15v-12.83c0-.5522847-.4477153-1-1-1z" fill="#f0c419"/><path id="Shape" d="m47.99 58h-43.99c-2.209139 0-4-1.790861-4-4v-21.38c-.002433-.3483719.17661477-.672901.47261275-.8566239s.66627789-.2001558.97738725-.0433761l2.1 1.06c.28367434.1399671.61632566.1399671.9 0l3.1-1.56c.28367434-.1399671.61632566-.1399671.9 0l3.1 1.56c.2836743.1399671.6163257.1399671.9 0l3.1-1.56c.2836743-.1399671.6163257-.1399671.9 0l3.1 1.56c.2836743.1399671.6163257.1399671.9 0l3.1-1.56c.2836743-.1399671.6163257-.1399671.9 0l3.1 1.56c.2836743.1399671.6163257.1399671.9 0l3.1-1.56c.2836743-.1399671.6163257-.1399671.9 0l3.1 1.56c.2836743.1399671.6163257.1399671.9 0l3.1-1.56c.2836743-.1399671.6163257-.1399671.9 0l3 1.5c.3395038.1710655.5526457.5198431.55.9v20.38c-.0000069 2.2052396 1.7847672 3.9944869 3.99 4z" fill="#f3d55b"/><g fill="#4fba6f"><path id="Shape" d="m34 44.081v-3.954c1.15.283 2 1.022 2 1.873 0 .5522847.4477153 1 1 1s1-.4477153 1-1c0-1.932-1.721-3.547-4-3.919v-.081c0-.5522847-.4477153-1-1-1s-1 .4477153-1 1v.081c-2.279.372-4 1.987-4 3.919s1.721 3.547 4 3.919v3.954c-1.15-.283-2-1.022-2-1.873 0-.5522847-.4477153-1-1-1s-1 .4477153-1 1c0 1.932 1.721 3.547 4 3.919v.081c0 .5522847.4477153 1 1 1s1-.4477153 1-1v-.081c2.279-.372 4-1.987 4-3.919s-1.721-3.547-4-3.919zm-4-2.081c0-.851.85-1.59 2-1.873v3.746c-1.15-.283-2-1.022-2-1.873zm4 7.873v-3.746c1.15.283 2 1.022 2 1.873s-.85 1.59-2 1.873z"/><path id="Shape" d="m13 9c0-2.209139-1.790861-4-4-4h-3c-1.1045695 0-2 .8954305-2 2v10c0 1.1045695.8954305 2 2 2h3c1.6680192.0073962 3.1639686-1.0253639 3.748285-2.5877074.5843165-1.5623435.1332171-3.3232998-1.130285-4.4122926.8741096-.7521264 1.3784135-1.8468527 1.382-3zm-2 6c0 1.1045695-.8954305 2-2 2h-3v-4h3c1.1045695 0 2 .8954305 2 2zm-5-4v-4h3c1.1045695 0 2 .8954305 2 2s-.8954305 2-2 2z"/><path id="Shape" d="m20 7c.5522847 0 1-.44771525 1-1s-.4477153-1-1-1h-4c-.5522847 0-1 .44771525-1 1s.4477153 1 1 1h1v10h-1c-.5522847 0-1 .4477153-1 1s.4477153 1 1 1h4c.5522847 0 1-.4477153 1-1s-.4477153-1-1-1h-1v-10z"/><path id="Shape" d="m30 17h-4v-11c0-.55228475-.4477153-1-1-1s-1 .44771525-1 1v12c0 .5522847.4477153 1 1 1h5c.5522847 0 1-.4477153 1-1s-.4477153-1-1-1z"/><path id="Shape" d="m39 17h-4v-11c0-.55228475-.4477153-1-1-1s-1 .44771525-1 1v12c0 .5522847.4477153 1 1 1h5c.5522847 0 1-.4477153 1-1s-.4477153-1-1-1z"/></g><path id="Shape" d="m24 39h-19c-.55228475 0-1-.4477153-1-1s.44771525-1 1-1h19c.5522847 0 1 .4477153 1 1s-.4477153 1-1 1z" fill="#547580"/><path id="Shape" d="m24 44h-19c-.55228475 0-1-.4477153-1-1s.44771525-1 1-1h19c.5522847 0 1 .4477153 1 1s-.4477153 1-1 1z" fill="#547580"/><path id="Shape" d="m24 49h-19c-.55228475 0-1-.4477153-1-1s.44771525-1 1-1h19c.5522847 0 1 .4477153 1 1s-.4477153 1-1 1z" fill="#547580"/><path id="Shape" d="m15 54h-10c-.55228475 0-1-.4477153-1-1s.44771525-1 1-1h10c.5522847 0 1 .4477153 1 1s-.4477153 1-1 1z" fill="#547580"/></g></g></svg>