<?xml version="1.0" encoding="iso-8859-1"?>
<!-- Generator: Adobe Illustrator 19.0.0, SVG Export Plug-In . SVG Version: 6.00 Build 0)  -->
<svg version="1.1" id="Capa_1" xmlns="http://www.w3.org/2000/svg" xmlns:xlink="http://www.w3.org/1999/xlink" x="0px" y="0px"
	 viewBox="0 0 512.853 512.853" style="enable-background:new 0 0 512.853 512.853;" xml:space="preserve">
<path style="fill:#F2F2F2;" d="M508.075,458.066c-0.107-0.416-0.107-0.96-0.224-1.376c-7.883-44.171-38.069-80-77.973-97.291
	c-12.171-5.44-25.28-9.067-38.933-10.667c-4.267-0.533-9.92-1.269-16.107-2.123c-12.96-1.856-28.149-4.107-37.877-5.291
	l-44.341,69.664l-36.181-25.557l-36.192,25.557l-44.352-69.707c-9.707,1.248-25.099,3.563-38.187,5.333
	c-6.187,0.853-11.829,1.589-16.107,2.123C63.477,355.57,15.147,398.983,4.917,456.69c-0.107,0.523-0.224,0.96-0.224,1.376
	C2.773,469.81,1.173,504.359,0,512.477h512.853C511.701,504.359,509.995,469.81,508.075,458.066"/>
<path style="fill:#F8B64C;" d="M329.088,281.437v58.987l-72.64,45.003c0,0-72.96-45.003-72.853-44.896l-0.107-0.107v-58.987
	L329.088,281.437L329.088,281.437z"/>
<g style="opacity:0.1;">
	<g>
		<polygon style="fill:#40596B;" points="282.891,369.106 217.088,321.01 249.088,281.437 329.088,281.437 329.088,340.423 		"/>
	</g>
</g>
<g>
	<path style="fill:#F8B64C;" d="M179.072,186.066c1.6,18.421-7.339,34.272-19.968,35.371c-12.629,1.099-24.203-12.939-25.813-31.371
		c-1.611-18.421,7.328-34.251,19.979-35.36C165.909,153.597,177.472,167.645,179.072,186.066"/>
	<path style="fill:#F8B64C;" d="M379.307,190.077c-1.6,18.421-13.163,32.469-25.803,31.371
		c-12.661-1.109-21.589-16.949-19.979-35.371c1.611-18.432,13.173-32.469,25.813-31.371
		C371.968,155.815,380.907,171.655,379.307,190.077"/>
</g>
<path style="fill:#FFD15C;" d="M362.624,137.863v34.901c-0.107,7.392-0.512,14.784-1.44,22.069
	c-1.536,12.117-4.117,24.021-7.701,35.531c-8.715,27.808-23.403,53.461-43.211,75.125l-10.165,11.083
	c-9.248,10.165-22.379,15.915-36.139,15.915h-15.381c-13.653,0-26.795-5.856-36.043-15.915l-10.048-11.083
	c-14.069-15.296-25.568-32.747-34.08-51.328c-8.64-18.677-14.379-38.699-16.821-59.328c-0.939-7.285-1.451-14.677-1.451-22.069
	c-0.107-0.821-0.107-1.536-0.107-2.357v-31.925c0-10.059,1.44-19.915,4.107-29.152c12.64-44.448,53.568-77.088,102.24-77.088
	c48.565,0,89.504,32.64,102.133,77.088C361.184,118.365,362.624,128.007,362.624,137.863"/>
<g>
	<path style="fill:#ACB3BA;" d="M351.093,312.882c-0.117,0.128-0.224,0.128-0.224,0.128v-0.235
		C350.976,312.765,351.093,312.882,351.093,312.882"/>
	<path style="fill:#ACB3BA;" d="M351.552,312.775v0.224c0,0-0.117,0-0.224-0.117C351.328,312.882,351.435,312.775,351.552,312.775"
		/>
</g>
<path style="fill:#40596B;" d="M420.704,512.477H92.384c16.853-59.84-5.643-148.907-9.163-153.077
	c12.16-5.44,25.269-9.067,38.933-10.667c4.149-0.523,9.696-1.163,15.669-2.016L256.341,493.65l118.496-147.04
	c6.187,0.853,11.829,1.6,16.107,2.123c13.653,1.6,26.773,5.227,38.933,10.667C426.368,363.57,403.851,452.637,420.704,512.477"/>
<g>
	<polygon style="fill:#CDD6E0;" points="256.427,385.405 329.099,340.423 337.077,341.287 292.64,410.983 	"/>
	<polygon style="fill:#CDD6E0;" points="256.469,385.405 183.477,340.423 175.797,341.287 220.256,410.983 	"/>
</g>
<g>
	<path style="fill:#40596B;" d="M299.968,376.157l-43.52,19.104l-43.52-19.104c-3.061-1.355-6.709,0.544-6.709,3.467v41.973
		c0,2.933,3.648,4.832,6.709,3.477l43.52-19.104l43.52,19.104c3.061,1.355,6.709-0.544,6.709-3.477v-41.973
		C306.677,376.69,303.029,374.802,299.968,376.157"/>
	<path style="fill:#40596B;" d="M145.632,157.458l4.405,6.581c0,0,7.125-42.624,11.765-50.944c0,0,8.544-29.963,57.333-11.989
		c0,0,101.024,25.685,111.296-10.272c0,0,9.184-8.32,20.469,4.224c0,0,11.744,2.923,11.744,68.992l6.485-4.885
		c31.637-91.819-20.715-105.984-20.715-105.984c-1.877-17.92-19.04-30.784-37.813-39.605C276.085-2.649,236.875-3.79,201.099,9.458
		c-37.312,13.824-54.336,36.384-61.963,55.957c-6.208,15.936-6.389,33.547-2.251,50.144
		C139.573,126.279,142.901,141.842,145.632,157.458"/>
</g>
<g>
</g>
<g>
</g>
<g>
</g>
<g>
</g>
<g>
</g>
<g>
</g>
<g>
</g>
<g>
</g>
<g>
</g>
<g>
</g>
<g>
</g>
<g>
</g>
<g>
</g>
<g>
</g>
<g>
</g>
</svg>
