<svg id="Layer_1" enable-background="new 0 0 509.108 509.108" height="512" viewBox="0 0 509.108 509.108" width="512" xmlns="http://www.w3.org/2000/svg"><g><g><path d="m241.328 258.983h25v156.972h-25z" fill="#55879b"/></g><g><path d="m254.946 235.159h-9.353c-2.388 0-4.323-1.936-4.323-4.323v-58.315c0-2.388 1.936-4.323 4.323-4.323h9.353c2.388 0 4.323 1.936 4.323 4.323v58.315c0 2.388-1.936 4.323-4.323 4.323z" fill="#c8e6eb"/></g><g><path d="m269.511 241.159h-38.484c-3.313 0-6-2.687-6-6s2.687-6 6-6h38.484c3.313 0 6 2.687 6 6s-2.686 6-6 6z" fill="#46738c"/></g><path d="m250.793 143.295c-.472-.864-1.712-.864-2.183 0-2.011 3.684-6.098 11.539-6.098 14.533 0 3.971 3.219 7.189 7.189 7.189 3.971 0 7.189-3.219 7.189-7.189.001-2.994-4.085-10.849-6.097-14.533z" fill="#ffda52"/><path d="m289.674 197.811c-3.626 0-6.292 3.317-5.619 6.88 3.222 17.049 18.197 29.944 36.183 29.944s32.961-12.895 36.183-29.944c.673-3.563-1.992-6.88-5.619-6.88z" fill="#46738c"/><path d="m145.463 196.491c-3.626 0-6.292 3.317-5.619 6.88 3.222 17.049 18.197 29.944 36.183 29.944s32.961-12.895 36.183-29.944c.673-3.563-1.992-6.88-5.619-6.88z" fill="#46738c"/><g><path d="m347.546 271.982h-187.438c-4.96 0-8.98-4.02-8.98-8.98v-12.683c0-4.96 4.02-8.98 8.98-8.98h187.437c4.96 0 8.98 4.02 8.98 8.98v12.683c.001 4.959-4.02 8.98-8.979 8.98z" fill="#dcbe82"/></g><path d="m320.996 140.386c-.678-1.319.617-2.78 2.019-2.298 5.335 1.834 9.818 7.344 9.12 14.277-.285 5.749-6.367 14.509-7.403 16.334-1.334 2.385-1.903 4.748-2.468 7.133-.337 1.421-2.241 1.742-3.003.495-6.874-11.251 4.537-22.38 4.003-29.072-.15-2.253-1.132-4.658-2.268-6.869z" fill="#c8e6eb"/><path d="m176.615 129.983c-.683-1.315.62-2.782 2.022-2.299 5.328 1.839 9.803 7.345 9.106 14.272-.282 5.698-6.324 14.433-7.403 16.334-1.33 2.377-1.9 4.732-2.463 7.109-.341 1.44-2.268 1.732-3.027.461-6.121-10.259 2.603-21.004 3.536-25.382 1.132-3.66.06-6.969-1.771-10.495z" fill="#c8e6eb"/><g><g id="XMLID_4048_"><path d="m173.012 415.242-31.741-93.347-78.517-7.161c-15.146-1.381-26.194-14.957-24.466-30.068.427-3.738 8.841-13.768 27.449-11.216l96.073 12.272c6.553 1.692 11.813 6.57 13.992 12.978l35.232 103.614c3.57 10.5-2.047 21.905-12.547 25.476-10.521 3.575-21.912-2.068-25.475-12.548z" fill="#414b82"/></g><path d="m92.843 163.656h-32.495c-12.627 0-22.863 10.236-22.863 22.863l.625 101.93 77.596-8.616v-93.314c0-12.627-10.236-22.863-22.863-22.863z" fill="#64afff"/><g><g><path d="m44.144 428.863c-5.523 0-10-4.477-10-10v-86.082c0-5.523 4.477-10 10-10 5.523 0 10 4.477 10 10v86.082c0 5.523-4.478 10-10 10z" fill="#a5c8cd"/></g><g><path d="m110.73 428.863c-5.523 0-10-4.477-10-10v-86.082c0-5.523 4.477-10 10-10 5.523 0 10 4.477 10 10v86.082c0 5.523-4.477 10-10 10z" fill="#a5c8cd"/></g></g><ellipse cx="85.359" cy="114.729" fill="#ffb69e" rx="34.483" ry="34.483" transform="matrix(.595 -.803 .803 .595 -57.641 115.003)"/><g id="XMLID_4038_"><path d="m80.692 230.159 20.039-4.107 6.022-16.897-25.92-33.223c-5.684-7.286-16.199-8.585-23.486-2.9s-8.585 16.2-2.9 23.486z" fill="#4699f2"/><path d="m173.07 217.056-58.533 2.078-7.785-9.978-26.06 21.004 12.711 16.293c3.177 4.072 8.049 6.44 13.192 6.44.198 0 .396-.003.595-.011l67.067-2.381c9.236-.328 16.457-8.081 16.129-17.316-.327-9.236-8.051-16.471-17.316-16.129z" fill="#ffb69e"/></g><g><path d="m129.468 339.16h-94.248c-19.42 0-35.22-15.8-35.22-35.22v-122.034c0-7.404 6.002-13.406 13.406-13.406s13.406 6.002 13.406 13.406v122.034c0 4.636 3.771 8.407 8.407 8.407h94.248c7.404 0 13.406 6.002 13.406 13.406s-6.001 13.407-13.405 13.407z" fill="#dcbe82"/></g></g><g><g id="XMLID_116_"><path d="m336.096 415.242 31.741-93.347 78.517-7.161c15.146-1.381 26.194-14.957 24.466-30.068-.427-3.738-8.841-13.768-27.449-11.216l-96.073 12.272c-6.553 1.692-11.813 6.57-13.992 12.978l-35.232 103.614c-3.57 10.5 2.047 21.905 12.547 25.476 10.522 3.575 21.912-2.068 25.475-12.548z" fill="#55696e"/></g><path d="m416.265 163.656h32.496c12.627 0 22.863 10.236 22.863 22.863l-.625 101.93-77.596-8.616v-93.314c-.001-12.627 10.235-22.863 22.862-22.863z" fill="#ffda52"/><g><g><path d="m464.965 428.863c5.523 0 10-4.477 10-10v-86.082c0-5.523-4.477-10-10-10-5.523 0-10 4.477-10 10v86.082c0 5.523 4.477 10 10 10z" fill="#a5c8cd"/></g><g><path d="m398.378 428.863c5.523 0 10-4.477 10-10v-86.082c0-5.523-4.477-10-10-10-5.523 0-10 4.477-10 10v86.082c0 5.523 4.477 10 10 10z" fill="#a5c8cd"/></g></g><ellipse cx="423.749" cy="114.729" fill="#ba6746" rx="34.483" ry="34.483" transform="matrix(.803 -.595 .595 .803 14.983 274.842)"/><g id="XMLID_115_"><path d="m428.417 230.159-20.039-4.107-6.022-16.897 25.92-33.223c5.684-7.286 16.199-8.585 23.486-2.9s8.585 16.2 2.9 23.486z" fill="#f2c41b"/><path d="m336.039 217.056 58.533 2.078 7.785-9.978 26.06 21.004-12.711 16.293c-3.177 4.072-8.049 6.44-13.192 6.44-.198 0-.396-.003-.595-.011l-67.067-2.381c-9.236-.328-16.457-8.081-16.129-17.316.327-9.236 8.05-16.471 17.316-16.129z" fill="#ba6746"/></g><g><path d="m379.641 339.16h94.248c19.42 0 35.22-15.8 35.22-35.22v-122.034c0-7.404-6.002-13.406-13.406-13.406s-13.406 6.002-13.406 13.406v122.034c0 4.636-3.771 8.407-8.407 8.407h-94.248c-7.404 0-13.406 6.002-13.406 13.406s6.001 13.407 13.405 13.407z" fill="#dcbe82"/></g></g><path d="m278.005 410.404h-48.149c-5.097 0-9.229 4.132-9.229 9.23 0 5.097 4.132 9.229 9.229 9.229h48.149c5.097 0 9.23-4.132 9.23-9.229s-4.132-9.23-9.23-9.23z" fill="#87afb9"/></g></svg>