<svg height="512" viewBox="0 0 58 60" width="512" xmlns="http://www.w3.org/2000/svg"><g id="Page-1" fill="none" fill-rule="evenodd"><g id="061---Ratings"><path id="Path" d="m44 19c-.0032948 1.1032019-.8967981 1.9967052-2 2h-2c1.1032019.0032948 1.9967052.8967981 2 2-.0081672 1.1011688-.8988312 1.9918328-2 2h-1c1.1032019.0032948 1.9967052.8967981 2 2-.0081672 1.1011688-.8988312 1.9918328-2 2h-8.1l-3.78-.02c-2.68-.04-3.46-.27-5.12-1.38-.16-.1-.33-.2-.5-.29l.14-13.46c.6021829-.3153932 1.1305073-.7550954 1.55-1.29.5470184-.7795476 1.1774109-1.497122 1.88-2.14 3.11-2.87 4.16-1.79 5.65-4.33.5826128-.98978531.9537522-2.08958376 1.09-3.23.0996641-1.10328801 1.0391974-1.93941775 2.1465962-1.91034523s2.0017663.91334763 2.0434038 2.02034523c.1643533 3.11648452-.5272941 6.21852311-2 8.97-.1292355.214998-.1321953.4830515-.0077387.7008507.1244567.2177992.3568978.3513379.6077387.3491493l5.4.01c1.1045695 0 2 .8954305 2 2s-.8954305 2-2 2h2c1.1011688.0081672 1.9918328.8988312 2 2z" fill="#fdd7ad"/><g fill="#f9c795"><path id="Path" d="m44 19h-6c-.5522847 0-1-.4477153-1-1s.4477153-1 1-1h4c1.1011688.0081672 1.9918328.8988312 2 2z"/><path id="Path" d="m42 23h-4c-.5522847 0-1-.4477153-1-1s.4477153-1 1-1h2c1.1032019.0032948 1.9967052.8967981 2 2z"/><path id="Path" d="m41 27h-4c-.5522847 0-1-.4477153-1-1s.4477153-1 1-1h2c1.1032019.0032948 1.9967052.8967981 2 2z"/></g><path id="Path" d="m20.08 37.33.06-.06c.4367778-.4273413.5949622-1.0646031.4087257-1.6465922s-.6849973-1.0090285-1.2887257-1.1034078l-4.37-.64c-.5217423-.0748147-.9718207-.4048721-1.2-.88l-1.95-4c-.2638662-.5501003-.8198888-.9000729-1.43-.9000729-.61011124 0-1.16613377.3499726-1.43.9000729l-1.95 4c-.22588815.4770247-.67713721.8079407-1.2.88l-4.36.64c-.60276101.0954334-1.10084314.521312-1.28875256 1.101931s-.03379797 1.2175711.39875256 1.648069l3.16 3.12c.37825343.3684308.55037423.8997602.46 1.42l-.75 4.4c-.10868615.6020063.13540105 1.2132941.62884543 1.5748698.49344439.3615756 1.1498683.4101451 1.69115457.1251302l3.9-2.08c.4641396-.2400186 1.0158604-.2400186 1.48 0l3.91 2.08c.5405572.2792857 1.192741.2278043 1.6827846-.1328338.4900436-.3606382.7331286-.9680126.6272154-1.5671662l-.08-.5z" fill="#f29c1f"/><path id="Path" d="m40.81 45.71-.08.5c-.1059132.5991536.1371718 1.206528.6272154 1.5671662.4900436.3606381 1.1422274.4121195 1.6827846.1328338l3.91-2.08c.4641396-.2400186 1.0158604-.2400186 1.48 0l3.9 2.08c.5412863.2850149 1.1977102.2364454 1.6911546-.1251302.4934443-.3615757.7375315-.9728635.6288454-1.5748698l-.75-4.4c-.0903742-.5202398.0817466-1.0515692.46-1.42l3.16-3.12c.4325505-.4304979.586662-1.06745.3987526-1.648069-.1879095-.580619-.6859916-1.0064976-1.2887526-1.101931l-4.36-.64c-.5228628-.0720593-.9741118-.4029753-1.2-.88l-1.95-4c-.2638662-.5501003-.8198888-.9000729-1.43-.9000729s-1.1661338.3499726-1.43.9000729l-1.95 4c-.2281793.4751279-.6782577.8051853-1.2.88l-4.37.64c-.6037284.0943793-1.1024892.5214187-1.2887257 1.1034078s-.0280521 1.2192509.4087257 1.6465922l.06.06z" fill="#f29c1f"/><rect id="Rectangle" fill="#2fa8cc" height="15" rx="2" width="7" x="15" y="13"/><path id="Path" d="m30.15 55.588 6.06 3.22c.838069.4405118 1.8539379.3647553 2.6173998-.1951877.763462-.5599429 1.1409489-1.5061101.9726002-2.4378123l-1.157-6.819c-.1382959-.8084001.1267519-1.6334082.71-2.21l4.9-4.83c.6776016-.6623164.922537-1.6507873.6325783-2.5528576-.2899587-.9020704-1.0649734-1.5626917-2.0015783-1.7061424l-6.776-1c-.8075353-.1202399-1.5036193-.63145-1.86-1.366l-3.03-6.2c-.4101664-.8509376-1.2713672-1.3918502-2.216-1.3918502s-1.8058336.5409126-2.216 1.3918502l-3.03 6.2c-.3563807.73455-1.0524647 1.2457601-1.86 1.366l-6.776 1c-.9366049.1434507-1.7116196.804072-2.0015783 1.7061424-.2899587.9020703-.0450233 1.8905412.6325783 2.5528576l4.9 4.83c.5832481.5765918.8482959 1.4015999.71 2.21l-1.161 6.819c-.1669507.9302731.2100373 1.8744737.9717936 2.4339449s1.7754978.6366907 2.6132064.1990551l6.06-3.22c.7203985-.3838226 1.5846015-.3838226 2.305 0z" fill="#f0c419"/></g></g></svg>